<?xml version="1.0" standalone="no"?>
<!DOCTYPE svg PUBLIC "-//W3C//DTD SVG 20010904//EN"
 "http://www.w3.org/TR/2001/REC-SVG-20010904/DTD/svg10.dtd">
<svg version="1.0" xmlns="http://www.w3.org/2000/svg"
 width="512.000000pt" height="512.000000pt" viewBox="0 0 512.000000 512.000000"
 preserveAspectRatio="xMidYMid meet">
<metadata>
Created by potrace 1.11, written by Peter Selinger 2001-2013
</metadata>
<g transform="translate(0.000000,512.000000) scale(0.100000,-0.100000)"
fill="#000000" stroke="none">
<path d="M0 4571 l0 -549 135 -76 c75 -42 138 -76 140 -76 3 0 6 187 7 415 l3
415 330 -186 c182 -102 347 -194 368 -205 l37 -19 0 415 0 415 -510 0 -510 0
0 -549z"/>
<path d="M1065 5101 c85 -53 695 -391 705 -391 10 0 620 338 705 391 29 18 15
19 -705 19 -720 0 -734 -1 -705 -19z"/>
<path d="M2536 5112 c18 -17 711 -402 722 -402 9 0 717 393 731 406 2 2 -326
4 -729 4 -404 0 -730 -4 -724 -8z"/>
<path d="M4010 4705 l0 -416 23 12 c12 7 177 99 366 206 188 106 345 193 347
193 2 0 4 -187 4 -416 0 -229 4 -414 8 -412 4 2 88 48 185 102 l177 100 0 523
0 523 -555 0 -555 0 0 -415z"/>
<path d="M1770 4286 c0 -229 2 -416 4 -416 7 0 737 412 734 415 -2 1 -149 85
-328 185 -179 100 -344 194 -367 207 l-43 25 0 -416z"/>
<path d="M2888 4492 c-202 -113 -364 -209 -360 -213 4 -4 169 -98 367 -209
198 -111 361 -203 362 -204 2 -2 -165 -97 -370 -212 l-373 -210 -370 208 -369
208 -3 -418 -2 -417 -357 -200 c-196 -110 -365 -207 -375 -215 -17 -14 -18
-36 -16 -427 l3 -412 370 208 370 208 3 418 c2 347 5 416 16 412 7 -3 175 -96
371 -207 313 -176 361 -200 379 -190 12 6 179 100 371 208 l350 197 3 418 c1
229 6 417 10 416 4 0 171 -94 372 -207 l365 -207 3 -412 c1 -227 5 -413 9
-413 3 0 253 138 554 308 l548 307 1 210 0 210 -552 310 c-303 171 -555 311
-559 313 -4 2 -172 -89 -372 -202 -201 -114 -368 -206 -371 -206 -3 0 -7 187
-8 415 l-3 414 -367 -207z"/>
<path d="M507 3992 l-507 -286 0 -261 0 -260 508 -285 507 -286 3 416 3 415
354 199 c195 109 362 204 371 211 14 10 -42 45 -351 218 -202 114 -370 207
-374 206 -3 0 -234 -129 -514 -287z"/>
<path d="M133 2943 l-133 -75 0 -414 c0 -228 3 -414 8 -414 4 0 65 33 137 74
l130 73 3 417 c1 229 -1 416 -5 415 -5 0 -68 -34 -140 -76z"/>
<path d="M3262 2603 l3 -417 360 -203 c198 -111 363 -203 368 -203 4 0 7 186
7 414 l0 414 -366 206 c-201 113 -368 206 -370 206 -2 0 -3 -188 -2 -417z"/>
<path d="M4752 2604 l3 -418 140 -79 c77 -43 159 -89 183 -103 l42 -25 0 419
0 419 -177 99 c-97 54 -180 101 -185 102 -4 2 -7 -184 -6 -414z"/>
<path d="M278 1763 l-3 -417 -135 -76 -135 -76 -3 -597 -2 -597 140 0 140 0 0
255 c0 140 2 255 3 255 2 0 168 -92 368 -205 l364 -205 3 415 c1 228 5 415 8
415 3 0 169 -92 370 -205 200 -113 368 -205 374 -205 6 0 174 92 374 205 201
113 367 205 370 205 3 0 169 -92 369 -205 201 -113 369 -205 375 -205 5 0 170
90 365 200 196 110 363 203 371 206 14 5 16 -40 18 -409 l3 -416 355 201 c195
110 361 202 368 205 9 4 12 -50 12 -251 l0 -256 185 0 185 0 -2 571 -3 571
-182 102 -182 101 -1 419 c0 394 -1 418 -17 412 -17 -7 -224 -123 -1113 -624
l-355 -200 -3 415 c-2 345 -5 414 -16 410 -7 -3 -174 -96 -370 -206 -196 -111
-359 -201 -361 -201 -3 0 -169 92 -369 205 -201 113 -367 205 -370 205 -3 0
-7 -187 -8 -415 l-3 -414 -365 204 c-201 113 -372 209 -380 214 -49 31 -728
411 -733 411 -4 0 -8 -188 -9 -417z"/>
<path d="M1770 256 l0 -256 286 0 286 0 85 46 c46 25 83 47 81 49 -2 2 -145
82 -318 180 -173 97 -339 190 -367 207 l-53 29 0 -255z"/>
<path d="M2891 305 c-200 -113 -366 -207 -368 -209 -2 -2 33 -24 78 -50 l82
-46 288 0 289 0 0 255 c0 140 -1 255 -2 255 -2 0 -167 -92 -367 -205z"/>
<path d="M942 47 l-74 -42 76 -3 c41 -2 112 -2 157 0 l81 3 -76 43 c-42 23
-79 42 -84 42 -4 0 -40 -20 -80 -43z"/>
<path d="M3927 51 c-37 -21 -70 -41 -74 -44 -3 -4 65 -7 153 -7 l159 0 -75 45
c-41 24 -79 44 -85 44 -5 0 -40 -17 -78 -38z"/>
</g>
</svg>
